<svg width="22" height="22" viewBox="0 0 22 22" fill="none" xmlns="http://www.w3.org/2000/svg">
<path d="M17.4166 3.66659H15.5833V2.74992C15.5833 2.5068 15.4867 2.27365 15.3148 2.10174C15.1429 1.92983 14.9098 1.83325 14.6666 1.83325C14.4235 1.83325 14.1904 1.92983 14.0185 2.10174C13.8466 2.27365 13.75 2.5068 13.75 2.74992V3.66659H8.24998V2.74992C8.24998 2.5068 8.1534 2.27365 7.98149 2.10174C7.80959 1.92983 7.57643 1.83325 7.33331 1.83325C7.0902 1.83325 6.85704 1.92983 6.68513 2.10174C6.51322 2.27365 6.41665 2.5068 6.41665 2.74992V3.66659H4.58331C3.85397 3.66659 3.15449 3.95632 2.63877 4.47204C2.12304 4.98777 1.83331 5.68724 1.83331 6.41658V17.4166C1.83331 18.1459 2.12304 18.8454 2.63877 19.3611C3.15449 19.8769 3.85397 20.1666 4.58331 20.1666H17.4166C18.146 20.1666 18.8455 19.8769 19.3612 19.3611C19.8769 18.8454 20.1666 18.1459 20.1666 17.4166V6.41658C20.1666 5.68724 19.8769 4.98777 19.3612 4.47204C18.8455 3.95632 18.146 3.66659 17.4166 3.66659ZM18.3333 17.4166C18.3333 17.6597 18.2367 17.8929 18.0648 18.0648C17.8929 18.2367 17.6598 18.3333 17.4166 18.3333H4.58331C4.3402 18.3333 4.10704 18.2367 3.93513 18.0648C3.76322 17.8929 3.66665 17.6597 3.66665 17.4166V10.9999H18.3333V17.4166ZM18.3333 9.16658H3.66665V6.41658C3.66665 6.17347 3.76322 5.94031 3.93513 5.7684C4.10704 5.5965 4.3402 5.49992 4.58331 5.49992H6.41665V6.41658C6.41665 6.6597 6.51322 6.89286 6.68513 7.06477C6.85704 7.23667 7.0902 7.33325 7.33331 7.33325C7.57643 7.33325 7.80959 7.23667 7.98149 7.06477C8.1534 6.89286 8.24998 6.6597 8.24998 6.41658V5.49992H13.75V6.41658C13.75 6.6597 13.8466 6.89286 14.0185 7.06477C14.1904 7.23667 14.4235 7.33325 14.6666 7.33325C14.9098 7.33325 15.1429 7.23667 15.3148 7.06477C15.4867 6.89286 15.5833 6.6597 15.5833 6.41658V5.49992H17.4166C17.6598 5.49992 17.8929 5.5965 18.0648 5.7684C18.2367 5.94031 18.3333 6.17347 18.3333 6.41658V9.16658Z" fill="black"/>
</svg>
