<svg width="25" height="21" viewBox="0 0 25 21" fill="none" xmlns="http://www.w3.org/2000/svg">
<path d="M23.4559 14.5086L18.1742 12.6513C17.9486 12.5724 17.6978 12.5557 17.4597 12.6039C17.2215 12.652 17.0089 12.7624 16.8538 12.9182L14.5147 15.2631C10.8438 13.8429 7.88962 11.4189 6.15883 8.40691L9.0166 6.48769C9.20697 6.36065 9.3417 6.18617 9.40042 5.99068C9.45913 5.79519 9.43862 5.58933 9.34199 5.40426L7.07841 1.07053C6.97236 0.871026 6.78479 0.708139 6.54805 0.609954C6.31131 0.511769 6.04023 0.484441 5.78156 0.532682L0.877138 1.46134C0.627752 1.50859 0.40525 1.62381 0.245945 1.78818C0.086641 1.95255 -5.74483e-05 2.15638 2.85598e-08 2.36639C2.85598e-08 12.2914 9.80414 20.3204 21.8813 20.3204C22.1373 20.3205 22.3858 20.2494 22.5863 20.1187C22.7867 19.988 22.9272 19.8054 22.9848 19.6007L24.1166 15.5765C24.175 15.3632 24.141 15.1399 24.0204 14.945C23.8998 14.7501 23.7002 14.5958 23.4559 14.5086Z" fill="white"/>
</svg>
